HIERARCHY
ROOT Hips
{
	OFFSET 0.000000 0.000000 0.000000 
	CHANNELS 6 Xposition Yposition Zposition Zrotation Yrotation Xrotation
	JOINT LeftUpLeg
	{
		OFFSET 1.363060 -1.794630 0.839290 
		CHANNELS 3 Zrotation Yrotation Xrotation
		JOINT LeftLeg
		{
			OFFSET 2.448110 -6.726130 0.000000 
			CHANNELS 3 Zrotation Yrotation Xrotation
			JOINT LeftFoot
			{
				OFFSET 2.562200 -7.039590 0.000000 
				CHANNELS 3 Zrotation Yrotation Xrotation
				JOINT LeftToeBase
				{
					OFFSET 0.157640 -0.433110 2.322550 
					CHANNELS 3 Zrotation Yrotation Xrotation
					End Site
					{
						OFFSET 0.000000 0.000000 0.000000 
					}
				}
			}
		}
	}
	JOINT RightUpLeg
	{
		OFFSET -1.305520 -1.794630 0.839290 
		CHANNELS 3 Zrotation Yrotation Xrotation
		JOINT RightLeg
		{
			OFFSET -2.542530 -6.985550 0.000000 
			CHANNELS 3 Zrotation Yrotation Xrotation
			JOINT RightFoot
			{
				OFFSET -2.568260 -7.056230 0.000000 
				CHANNELS 3 Zrotation Yrotation Xrotation
				JOINT RightToeBase
				{
					OFFSET -0.164730 -0.452590 2.363150 
					CHANNELS 3 Zrotation Yrotation Xrotation
					End Site
					{
						OFFSET 0.000000 0.000000 0.000000 
					}
				}
			}
		}
	}
	JOINT Spine
	{
		OFFSET 0.028270 2.035590 -0.193380 
		CHANNELS 3 Zrotation Yrotation Xrotation
		JOINT Spine1
		{
			OFFSET 0.056720 2.048850 -0.042750 
			CHANNELS 3 Zrotation Yrotation Xrotation
			JOINT Neck1
			{
				OFFSET -0.054170 1.746240 0.172020 
				CHANNELS 3 Zrotation Yrotation Xrotation
				JOINT Head
				{
					OFFSET 0.104070 1.761360 -0.123970 
					CHANNELS 3 Zrotation Yrotation Xrotation
					End Site
					{
						OFFSET 0.000000 0.000000 0.000000 
					}
				}
			}
			JOINT LeftArm
			{
				OFFSET 3.362410 1.200890 -0.311210 
				CHANNELS 3 Zrotation Yrotation Xrotation
				JOINT LeftForeArm
				{
					OFFSET 4.983000 -0.000000 -0.000000 
					CHANNELS 3 Zrotation Yrotation Xrotation
					JOINT LeftHand
					{
						OFFSET 3.483560 -0.000000 -0.000000 
						CHANNELS 3 Zrotation Yrotation Xrotation
						JOINT LeftHandIndex1
						{
							OFFSET 0.715260 -0.000000 -0.000000 
							CHANNELS 3 Zrotation Yrotation Xrotation
							End Site
							{
								OFFSET 0.000000 0.000000 0.000000 
							}
						}
					}
				}
			}
			JOINT RightArm
			{
				OFFSET -3.136600 1.374050 -0.404650 
				CHANNELS 3 Zrotation Yrotation Xrotation
				JOINT RightForeArm
				{
					OFFSET -5.241900 -0.000000 -0.000000 
					CHANNELS 3 Zrotation Yrotation Xrotation
					JOINT RightHand
					{
						OFFSET -3.444170 -0.000000 -0.000000 
						CHANNELS 3 Zrotation Yrotation Xrotation
						JOINT RightHandIndex1
						{
							OFFSET -0.622530 -0.000000 -0.000000 
							CHANNELS 3 Zrotation Yrotation Xrotation
							End Site
							{
								OFFSET 0.000000 0.000000 0.000000 
							}
						}
					}
				}
			}
		}
	}
}
MOTION
Frames: 7
Frame Time: 0.041667
-0.524322 17.927716 -1.206023 -123.888730 80.103809 -130.457427 -1.662099 -9.558029 -2.828253 -0.318555 9.551367 27.315360 8.728849 -17.084256 2.761668 0.025100 1.021900 2.808900 16.947868 12.606158 0.835414 2.905970 -6.050954 18.264921 -2.974119 7.380665 6.192003 -0.038400 1.264900 -3.478000 -0.101634 4.454264 5.712376 -2.490000 2.967492 -0.376865 11.807668 -2.540691 2.163107 0.926500 -1.350800 0.004500 -75.636614 22.465382 16.659203 21.645109 -33.314109 -8.966647 0.670399 -1.696957 2.103249 -7.125000 0.000000 0.000000 78.849948 -9.349853 30.094755 -27.249404 34.632042 -8.994113 0.689131 0.243826 3.971801 7.125000 0.000000 0.000000 
-0.541305 17.939244 -1.201803 -124.183179 80.290027 -130.473651 -1.761686 -9.579159 -3.029496 -0.378446 9.494861 27.146392 8.668284 -16.882840 2.956940 0.024400 1.007500 2.769400 16.680487 12.841041 0.547618 2.912278 -6.068011 18.268279 -2.970013 7.283191 6.292479 -0.039000 1.275100 -3.506100 -0.086053 4.455652 5.787230 -2.491225 2.974525 -0.358096 11.622289 -2.525403 2.035770 0.871000 -1.355200 -0.036600 -75.623492 22.429096 16.563361 21.505843 -33.174877 -8.878329 0.668176 -1.695493 2.323966 -7.125000 0.000000 0.000000 78.762924 -9.285090 30.018021 -27.341495 34.709404 -9.053252 0.695640 0.228335 3.780200 7.125000 0.000000 0.000000 
-0.558083 17.950875 -1.197171 -124.497193 80.483229 -130.505053 -1.864217 -9.595337 -3.231575 -0.439765 9.435312 26.969679 8.605922 -16.677558 3.155228 0.023600 0.991600 2.725700 16.406436 13.077781 0.258202 2.917781 -6.085039 18.271658 -2.965270 7.182274 6.388175 -0.040100 1.292400 -3.553800 -0.071318 4.460492 5.861659 -2.496010 2.983431 -0.339967 11.432320 -2.515478 1.902067 0.815200 -1.362600 -0.079800 -75.600471 22.394685 16.494715 21.402771 -33.071353 -8.813141 0.666189 -1.693841 2.496253 -7.125000 0.000000 0.000000 78.675685 -9.230017 29.953768 -27.429358 34.783378 -9.109772 0.701657 0.213367 3.610915 7.125000 0.000000 0.000000 
-0.574654 17.962609 -1.192127 -124.836673 80.682548 -130.557818 -1.969804 -9.609899 -3.434822 -0.502650 9.372851 26.785406 8.541021 -16.465845 3.355984 0.022800 0.974200 2.677800 16.124938 13.312960 -0.036639 2.922335 -6.102367 18.276298 -2.960024 7.078554 6.480540 -0.041500 1.314300 -3.614200 -0.056394 4.466558 5.935393 -2.502211 2.993170 -0.323050 11.233353 -2.506386 1.754185 0.758100 -1.371500 -0.127700 -75.572991 22.363994 16.449994 21.338421 -33.006413 -8.772983 0.664888 -1.691665 2.615107 -7.125000 0.000000 0.000000 78.585778 -9.181280 29.897733 -27.515881 34.856834 -9.166046 0.707473 0.200454 3.451473 7.125000 0.000000 0.000000 
-0.591020 17.974446 -1.186672 -125.207637 80.884648 -130.636979 -2.077289 -9.626620 -3.637924 -0.566785 9.307891 26.594188 8.473891 -16.248351 3.557889 0.021900 0.955800 2.627200 15.838327 13.543064 -0.336917 2.925762 -6.120200 18.282872 -2.954764 6.974214 6.570413 -0.043100 1.339800 -3.684200 -0.042245 4.475710 6.007690 -2.513577 3.004700 -0.307564 11.025990 -2.503775 1.600323 0.698700 -1.384000 -0.178100 -75.534187 22.334219 16.436692 21.308965 -32.976453 -8.755071 0.663952 -1.689757 2.675516 -7.125000 0.000000 0.000000 78.496193 -9.142865 29.851364 -27.597151 34.926252 -9.219202 0.712661 0.189103 3.306346 7.125000 0.000000 0.000000 
-0.607283 17.986488 -1.180805 -125.628860 81.092124 -130.759656 -2.189004 -9.648439 -3.842052 -0.632638 9.240207 26.396062 8.404230 -16.025720 3.764961 0.021200 0.940200 2.584300 15.542986 13.772522 -0.643527 2.928097 -6.138794 18.291386 -2.947744 6.862427 6.659196 -0.045100 1.370400 -3.768600 -0.023660 4.482855 6.080920 -2.516122 3.014980 -0.291151 10.810495 -2.499693 1.434673 0.639100 -1.396400 -0.231700 -75.503928 22.302037 16.436242 21.313069 -32.979248 -8.757970 0.663560 -1.687730 2.682412 -7.125000 0.000000 0.000000 78.391737 -9.107173 29.823634 -27.672784 34.991143 -9.269180 0.717408 0.180055 3.172491 7.125000 0.000000 0.000000 
-0.623340 17.998531 -1.174424 -126.097438 81.299795 -130.925969 -2.300787 -9.676966 -4.046037 -0.699831 9.169961 26.191423 8.333423 -15.801793 3.976229 0.020700 0.928500 2.552100 15.244848 13.998132 -0.955296 2.928969 -6.158251 18.302825 -2.938972 6.744461 6.744957 -0.047500 1.406900 -3.869100 -0.006629 4.490131 6.151190 -2.525613 3.025471 -0.279721 10.595081 -2.501933 1.271688 0.579900 -1.411400 -0.284300 -75.461829 22.271499 16.464113 21.349344 -33.014668 -8.781817 0.663988 -1.685983 2.635059 -7.125000 0.000000 0.000000 78.290685 -9.079985 29.806279 -27.741278 35.050338 -9.314697 0.721609 0.172984 3.048293 7.125000 0.000000 0.000000 
